<?xml version="1.0" encoding="UTF-8"?>
<svg id="Layer_1" data-name="Layer 1" xmlns="http://www.w3.org/2000/svg" xmlns:xlink="http://www.w3.org/1999/xlink" viewBox="0 0 694.68 678.02">
  <defs>
    <style>
      .cls-1 {
        fill: #53d482;
      }

      .cls-1, .cls-2, .cls-3, .cls-4 {
        fill-rule: evenodd;
      }

      .cls-5 {
        fill: url(#linear-gradient-2);
      }

      .cls-6 {
        fill: #6698fa;
      }

      .cls-7 {
        fill: #3f3f3f;
      }

      .cls-8 {
        fill: #ed1b3e;
      }

      .cls-9 {
        fill: #70c45f;
      }

      .cls-10 {
        fill: #a8ff58;
      }

      .cls-11 {
        fill: #55bcff;
      }

      .cls-12 {
        fill: url(#linear-gradient-4);
      }

      .cls-13 {
        fill: #ffa0cc;
      }

      .cls-14 {
        fill: #06bdc6;
      }

      .cls-15 {
        fill: url(#linear-gradient-3);
      }

      .cls-2 {
        fill: #215710;
      }

      .cls-16 {
        fill: #ff5d55;
      }

      .cls-17 {
        fill: #fff;
        filter: url(#drop-shadow-1);
      }

      .cls-3 {
        fill: #6367c3;
      }

      .cls-4 {
        fill: #62c6f9;
      }

      .cls-18 {
        fill: #a05bdb;
      }

      .cls-19 {
        fill: #191919;
      }

      .cls-20 {
        fill: #c1163b;
      }

      .cls-21 {
        fill: #e1432f;
      }

      .cls-22 {
        fill: #ff7694;
      }

      .cls-23 {
        fill: #ffd066;
      }

      .cls-24 {
        fill: #6ac3bd;
      }

      .cls-25 {
        fill: url(#linear-gradient);
      }
    </style>
    <filter id="drop-shadow-1" x="226.04" y="184.9" width="276.96" height="276.72" filterUnits="userSpaceOnUse">
      <feOffset dx="1" dy="9"/>
      <feGaussianBlur result="blur" stdDeviation="11"/>
      <feFlood flood-color="#000" flood-opacity=".44"/>
      <feComposite in2="blur" operator="in"/>
      <feComposite in="SourceGraphic"/>
    </filter>
    <linearGradient id="linear-gradient" x1="368.01" y1="370.2" x2="408.46" y2="213.04" gradientUnits="userSpaceOnUse">
      <stop offset="0" stop-color="#e14531"/>
      <stop offset="1" stop-color="#e5608b"/>
    </linearGradient>
    <linearGradient id="linear-gradient-2" x1="334.58" y1="361.6" x2="375.03" y2="204.44" xlink:href="#linear-gradient"/>
    <linearGradient id="linear-gradient-3" x1="332.34" y1="361.02" x2="372.8" y2="203.86" xlink:href="#linear-gradient"/>
    <linearGradient id="linear-gradient-4" x1="393.05" y1="376.65" x2="433.51" y2="219.49" xlink:href="#linear-gradient"/>
  </defs>
  <g>
    <rect class="cls-17" x="258.27" y="209.04" width="210.51" height="210.51" rx="63.08" ry="63.08"/>
    <g>
      <path class="cls-25" d="M434.4,277.89c0,32.59-42.78,49.36-42.78,49.36,0,0-42.78-16.76-42.78-49.36,0-13.89,10.34-25.14,23.1-25.14,8.32,0,15.61,4.79,19.68,11.96,4.07-7.17,11.36-11.96,19.68-11.96,12.77,0,23.1,11.25,23.1,25.14Z"/>
      <path class="cls-5" d="M353.29,275.44s-.09,0-.13-.01c-.45-.07-.76-.5-.69-.95,1.18-7.37,5.67-13.52,12-16.45.42-.19.91-.01,1.11.41.19.42.01.91-.41,1.11-5.84,2.7-9.97,8.39-11.06,15.21-.07.41-.42.7-.82.7Z"/>
      <path class="cls-15" d="M353.15,282.11c-.42,0-.79-.32-.83-.75-.05-.56-.09-1.14-.12-1.71-.02-.46.34-.85.8-.87.48-.03.85.34.87.8.02.55.06,1.09.11,1.62.04.46-.29.86-.75.91-.03,0-.05,0-.08,0Z"/>
      <path class="cls-12" d="M434.4,277.89c0,32.59-42.78,49.36-42.78,49.36,0,0-.99-.39-2.67-1.17,7.03-3.05,41.54-19.55,41.54-48.82,0-11.86-7.54-21.8-17.69-24.45,12.06.83,21.6,11.74,21.6,25.08Z"/>
    </g>
  </g>
  <g>
    <path class="cls-8" d="M60.89,340.86c0,23.2-30.45,35.12-30.45,35.12,0,0-30.45-11.93-30.45-35.12,0-9.89,7.36-17.89,16.44-17.89,5.92,0,11.11,3.41,14,8.51,2.9-5.1,8.09-8.51,14-8.51,9.08,0,16.44,8.01,16.44,17.89Z"/>
    <path class="cls-22" d="M3.17,339.11s-.06,0-.09,0c-.32-.05-.54-.36-.49-.68.84-5.24,4.03-9.62,8.54-11.71.3-.14.65,0,.79.29.14.3,0,.65-.29.79-4.15,1.92-7.1,5.97-7.87,10.82-.05.29-.3.5-.58.5Z"/>
    <path class="cls-22" d="M3.07,343.86c-.3,0-.56-.23-.59-.54-.04-.4-.07-.81-.08-1.22-.01-.33.24-.6.57-.62.34-.02.6.24.62.57.02.39.04.77.08,1.15.03.33-.21.62-.53.65-.02,0-.04,0-.06,0Z"/>
    <path class="cls-20" d="M60.89,340.86c0,23.2-30.44,35.13-30.44,35.13,0,0-.71-.28-1.9-.83,5-2.17,29.56-13.91,29.56-34.75,0-8.44-5.37-15.51-12.59-17.4,8.59.59,15.37,8.35,15.37,17.85Z"/>
  </g>
  <g id="double_bed" data-name="double bed">
    <g>
      <path class="cls-24" d="M624.09,591.34h-63.07c-.73,0-1.32.59-1.32,1.32v11.88c0,.73.59,1.32,1.32,1.32h1.01v1.83c0,1.3,1.05,2.35,2.35,2.35s2.35-1.05,2.35-2.35v-1.83h51.64v1.83c0,1.3,1.05,2.35,2.35,2.35s2.35-1.05,2.35-2.35v-1.83h1.01c.73,0,1.32-.59,1.32-1.32v-11.88c0-.73-.59-1.32-1.32-1.32Z"/>
      <g>
        <path class="cls-24" d="M591.27,565.25v4.65h2.76v-4.65c6.57-1.75,14.96-1.75,21.53,0,.31,1.55.61,3.1.92,4.65h1.9v-16.51c0-1.14-.93-2.07-2.07-2.07s-2.07.93-2.07,2.07v1.9h-43.37v-1.9c0-1.14-.93-2.07-2.07-2.07s-2.07.93-2.07,2.07v16.51h2.08c.31-1.55.61-3.1.92-4.65,6.57-1.75,14.96-1.75,21.53,0h0Z"/>
        <path class="cls-24" d="M618.37,571.2h-1.65c.11.56.22,1.12.33,1.68-7.56,2.01-15.48,2.01-23.04,0v-1.68h-2.76v1.68c-7.56,2.01-15.48,2.01-23.04,0,.11-.56.22-1.12.33-1.68h-1.83l-7.03,18.85h65.71l-7.03-18.85Z"/>
      </g>
    </g>
  </g>
  <g id="Layer_1-2" data-name="Layer_1">
    <g id="_345428904" data-name=" 345428904">
      <path id="_345430032" data-name=" 345430032" class="cls-3" d="M548.43,245.86h-32.87c-2.57,0-4.66-2.09-4.66-4.66v-45.49c0-2.57,2.09-4.66,4.66-4.66h6.92c.38,0,.69.31.69.69s-.31.69-.69.69h-6.92c-1.8,0-3.27,1.47-3.27,3.27v45.49c0,1.8,1.47,3.27,3.27,3.27h32.87c2.47,0,4.48-2.01,4.48-4.48v-16.51c0-.38.31-.69.69-.69.38,0,.69.31.69.69v16.51c0,3.23-2.63,5.86-5.86,5.86h0Z"/>
      <path id="_345430440" data-name=" 345430440" class="cls-3" d="M553.6,217.2c-.38,0-.69-.31-.69-.69v-20.8c0-1.8-1.47-3.27-3.27-3.27h-6.92c-.38,0-.69-.31-.69-.69,0-.38.31-.69.69-.69h6.92c2.57,0,4.66,2.09,4.66,4.66v20.8c0,.38-.31.69-.69.69h0Z"/>
      <path id="_345430344" data-name=" 345430344" class="cls-3" d="M548.67,242.98h-32.16c-1.51,0-2.74-1.23-2.74-2.74v-43.57c0-1.51,1.23-2.74,2.74-2.74h5.9c.38,0,.69.31.69.69,0,.38-.31.69-.69.69h-5.9c-.75,0-1.36.61-1.36,1.36v43.57c0,.75.61,1.35,1.36,1.35h32.16c.75,0,1.35-.61,1.35-1.35v-13.89c0-.38.31-.69.69-.69s.69.31.69.69v13.89c0,1.51-1.23,2.74-2.74,2.74h0Z"/>
      <path id="_345429984" data-name=" 345429984" class="cls-3" d="M550.72,220.08c-.38,0-.69-.31-.69-.69v-22.72c0-.75-.61-1.36-1.35-1.36h-5.9c-.38,0-.69-.31-.69-.69,0-.38.31-.69.69-.69h5.9c1.51,0,2.74,1.23,2.74,2.74v22.72c0,.38-.31.69-.69.69h0Z"/>
      <path id="_345430248" data-name=" 345430248" class="cls-3" d="M523.11,194.95h18.97v-2.8c0-.41-.34-.75-.75-.75h0-4.17c-.38,0-.69-.31-.69-.69,0-2.14-1.74-3.87-3.87-3.87s-3.87,1.74-3.87,3.87c0,.38-.31.69-.69.69h-4.17c-.42,0-.75.34-.75.75v2.8s0,0,0,0ZM542.35,196.33h-19.51c-.61,0-1.12-.5-1.12-1.12v-3.07c0-1.18.96-2.14,2.14-2.14h3.52c.34-2.57,2.55-4.57,5.21-4.57s4.87,1.99,5.21,4.57h3.52c1.18,0,2.14.96,2.14,2.14v3.07c0,.62-.5,1.12-1.12,1.12h0Z"/>
      <path id="_345430320" data-name=" 345430320" class="cls-3" d="M532.59,189.77c-.52,0-.94.42-.94.94,0,.52.42.94.94.94s.94-.42.94-.94c0-.52-.42-.94-.94-.94ZM532.59,193.03c-1.28,0-2.32-1.04-2.32-2.32,0-1.28,1.04-2.32,2.32-2.32s2.32,1.04,2.32,2.32c0,1.28-1.04,2.32-2.32,2.32h0Z"/>
      <path id="_345430416" data-name=" 345430416" class="cls-3" d="M546.44,201.82h-25.05c-.38,0-.69-.31-.69-.69,0-.38.31-.69.69-.69h25.05c.38,0,.69.31.69.69,0,.38-.31.69-.69.69h0Z"/>
      <path id="_345430056" data-name=" 345430056" class="cls-3" d="M518.75,201.82c-.18,0-.36-.07-.49-.2-.13-.13-.2-.31-.2-.49,0-.18.07-.36.2-.49.03-.03.07-.06.1-.09.04-.02.08-.05.12-.06.04-.02.09-.03.13-.04.09-.02.18-.02.27,0,.04,0,.09.02.13.04.04.02.08.04.12.06.04.03.07.05.1.09.13.13.2.31.2.49,0,.18-.07.36-.2.49-.03.03-.07.06-.11.09-.04.03-.08.05-.12.06-.04.02-.09.03-.13.04-.04,0-.09.01-.13.01Z"/>
      <path id="_345429960" data-name=" 345429960" class="cls-3" d="M546.44,207.76h-25.05c-.38,0-.69-.31-.69-.69,0-.38.31-.69.69-.69h25.05c.38,0,.69.31.69.69,0,.38-.31.69-.69.69h0Z"/>
      <path id="_345429216" data-name=" 345429216" class="cls-3" d="M518.75,207.76c-.18,0-.36-.07-.49-.2-.03-.03-.06-.07-.09-.1-.03-.04-.05-.08-.06-.12-.02-.04-.03-.09-.04-.13,0-.04-.01-.09-.01-.14,0-.04,0-.09.01-.13,0-.04.02-.09.04-.13.02-.04.04-.08.06-.12.03-.04.05-.07.09-.1.03-.03.07-.06.1-.09.04-.02.08-.05.12-.06.04-.02.09-.03.13-.04.23-.05.46.03.62.19.03.03.06.07.09.1.03.04.05.08.06.12.02.04.03.09.04.13,0,.04.01.09.01.13,0,.18-.07.36-.2.49-.13.13-.31.2-.49.2h0Z"/>
      <path id="_345429528" data-name=" 345429528" class="cls-3" d="M546.44,213.71h-25.05c-.38,0-.69-.31-.69-.69,0-.38.31-.69.69-.69h25.05c.38,0,.69.31.69.69,0,.38-.31.69-.69.69h0Z"/>
      <path id="_345429504" data-name=" 345429504" class="cls-3" d="M518.75,213.71s-.09,0-.14-.01c-.04,0-.09-.02-.13-.04-.04-.02-.08-.04-.12-.06-.04-.03-.07-.05-.1-.09-.03-.03-.06-.07-.09-.11-.03-.04-.05-.08-.06-.12-.02-.04-.03-.09-.04-.13,0-.04-.01-.09-.01-.14,0-.18.07-.36.2-.49.03-.03.07-.06.1-.09.04-.02.08-.05.12-.06.04-.02.09-.03.13-.04.23-.05.46.03.62.19.13.13.2.31.2.49,0,.05,0,.09-.01.14,0,.04-.02.09-.04.13-.02.04-.04.08-.06.12-.03.04-.05.07-.09.11-.03.03-.07.06-.11.09-.04.03-.08.05-.12.06-.04.02-.09.03-.13.04-.04,0-.09.01-.13.01h0Z"/>
      <path id="_345429432" data-name=" 345429432" class="cls-3" d="M546.44,219.66h-25.05c-.38,0-.69-.31-.69-.69,0-.38.31-.69.69-.69h25.05c.38,0,.69.31.69.69,0,.38-.31.69-.69.69h0Z"/>
      <path id="_345429696" data-name=" 345429696" class="cls-3" d="M518.75,219.66s-.09,0-.14-.01c-.04,0-.09-.02-.13-.04-.04-.02-.08-.04-.12-.06-.04-.03-.07-.05-.1-.09-.03-.03-.06-.07-.09-.1-.03-.04-.05-.08-.06-.12-.02-.04-.03-.09-.04-.13,0-.04-.01-.09-.01-.14,0-.04,0-.09.01-.13,0-.04.02-.09.04-.13.02-.04.04-.08.06-.12.03-.04.05-.07.09-.1.03-.03.07-.06.1-.09.04-.02.08-.05.12-.06.04-.02.09-.03.13-.04.09-.02.18-.02.27,0,.04,0,.09.02.13.04.04.02.08.04.12.06.04.03.07.05.1.09.03.03.06.07.09.1.03.04.05.08.06.12.02.04.03.09.04.13,0,.04.01.09.01.13,0,.05,0,.09-.01.14,0,.04-.02.09-.04.13-.02.04-.04.08-.06.12-.03.04-.05.07-.09.1-.03.03-.07.06-.11.09-.04.03-.08.05-.12.06-.04.02-.09.03-.13.04-.04,0-.09.01-.13.01Z"/>
      <path id="_345428952" data-name=" 345428952" class="cls-3" d="M540.48,225.6h-19.08c-.38,0-.69-.31-.69-.69,0-.38.31-.69.69-.69h19.08c.38,0,.69.31.69.69s-.31.69-.69.69h0Z"/>
      <path id="_345429168" data-name=" 345429168" class="cls-3" d="M518.75,225.6c-.18,0-.36-.07-.49-.2-.13-.13-.2-.31-.2-.49,0-.04,0-.09.01-.13,0-.04.02-.09.04-.13.02-.04.04-.08.06-.12.03-.04.05-.07.09-.1.03-.03.07-.06.1-.09.04-.02.08-.05.12-.06.04-.02.09-.03.13-.04.23-.05.46.03.62.19.03.03.06.07.09.1.03.04.05.08.06.12.02.04.03.09.04.13,0,.04.01.09.01.13,0,.05,0,.09-.01.14,0,.04-.02.09-.04.13-.02.04-.04.08-.06.12-.03.04-.05.07-.09.1-.03.03-.07.06-.1.09-.04.03-.08.05-.12.06-.04.02-.09.03-.13.04-.04,0-.09.01-.13.01Z"/>
      <path id="_345429288" data-name=" 345429288" class="cls-3" d="M535.48,231.55h-14.09c-.38,0-.69-.31-.69-.69,0-.38.31-.69.69-.69h14.09c.38,0,.69.31.69.69,0,.38-.31.69-.69.69h0Z"/>
      <path id="_345429576" data-name=" 345429576" class="cls-3" d="M518.75,231.55s-.09,0-.14-.01c-.04,0-.09-.02-.13-.04-.04-.02-.08-.04-.12-.06-.04-.03-.07-.05-.1-.09-.03-.03-.06-.07-.09-.11-.03-.04-.05-.08-.06-.12-.02-.04-.03-.09-.04-.13,0-.04-.01-.09-.01-.14,0-.18.07-.36.2-.49.03-.03.07-.06.1-.09.04-.03.08-.05.12-.06.04-.02.09-.03.13-.04.22-.05.46.03.62.19.13.13.2.31.2.49,0,.05,0,.09-.01.14,0,.04-.02.09-.04.13-.02.04-.04.08-.06.12-.03.04-.05.07-.09.11-.03.03-.07.06-.1.09-.04.03-.08.05-.12.06-.04.02-.09.03-.13.04-.04,0-.09.01-.13.01h0Z"/>
      <path id="_345429456" data-name=" 345429456" class="cls-3" d="M533.91,237.5h-12.52c-.38,0-.69-.31-.69-.69,0-.38.31-.69.69-.69h12.52c.38,0,.69.31.69.69,0,.38-.31.69-.69.69h0Z"/>
      <path id="_345428640" data-name=" 345428640" class="cls-3" d="M518.75,237.5s-.09,0-.14-.01c-.04,0-.09-.02-.13-.04-.04-.02-.08-.04-.12-.06-.04-.03-.07-.05-.1-.09-.03-.03-.06-.07-.09-.11-.03-.04-.05-.08-.06-.12-.02-.04-.03-.09-.04-.13,0-.04-.01-.09-.01-.13,0-.05,0-.09.01-.14,0-.04.02-.09.04-.13.02-.04.04-.08.06-.12.03-.04.05-.07.09-.11.16-.16.4-.23.62-.19.04,0,.09.02.13.04.04.02.08.04.12.06.04.03.07.05.1.09.03.03.06.07.09.11.02.04.05.08.06.12.02.04.03.09.04.13,0,.04.01.09.01.14,0,.04,0,.09-.01.13,0,.04-.02.09-.04.13-.02.04-.04.08-.06.12-.03.04-.05.07-.09.11-.13.13-.31.2-.49.2h0Z"/>
      <path id="_345428496" data-name=" 345428496" class="cls-3" d="M539.8,231.29l-1.74,4.25,4.25-1.74,19.62-19.62c.34-.34.52-.78.52-1.25,0-.47-.18-.92-.52-1.25-.69-.69-1.82-.69-2.51,0l-19.62,19.62h0ZM536.79,237.5c-.18,0-.36-.07-.49-.2-.2-.2-.26-.49-.15-.75l2.42-5.9c.03-.08.09-.16.15-.23l19.72-19.72c1.23-1.23,3.23-1.23,4.46,0,.6.6.92,1.39.92,2.23,0,.84-.33,1.64-.92,2.23l-19.72,19.72c-.06.06-.14.12-.23.15l-5.9,2.42c-.08.03-.17.05-.26.05h0Z"/>
      <path id="_345428352" data-name=" 345428352" class="cls-3" d="M560.91,216.86c-.18,0-.35-.07-.49-.2l-3.48-3.48c-.27-.27-.27-.71,0-.98.27-.27.71-.27.98,0l3.48,3.48c.27.27.27.71,0,.98-.14.13-.31.2-.49.2h0Z"/>
      <path id="_345428328" data-name=" 345428328" class="cls-3" d="M542.69,235.08c-.18,0-.35-.07-.49-.2l-3.48-3.48c-.27-.27-.27-.71,0-.98.27-.27.71-.27.98,0l3.48,3.48c.27.27.27.71,0,.98-.14.14-.31.2-.49.2h0Z"/>
      <path id="_345428304" data-name=" 345428304" class="cls-3" d="M540.95,233.33c-.18,0-.35-.07-.49-.2-.27-.27-.27-.71,0-.98l18.21-18.21c.27-.27.71-.27.98,0,.27.27.27.71,0,.98l-18.21,18.21c-.13.13-.31.2-.49.2h0Z"/>
    </g>
  </g>
  <path class="cls-18" d="M519.04,16.58h-22.45c1.58-1.76,2.55-4.08,2.55-6.63,0-5.49-4.46-9.95-9.95-9.95s-9.95,4.46-9.95,9.95c0,2.55.97,4.87,2.55,6.63h-22.45c-.92,0-1.66.74-1.66,1.66v6.63c0,.92.74,1.66,1.66,1.66h19.89v13.11l-6.6,34.66c-.09.48.04.99.35,1.37.31.38.78.6,1.28.6h8.29c.78,0,1.46-.55,1.62-1.32l5.01-23.79,5.01,23.79c.16.77.84,1.32,1.62,1.32h8.29c.49,0,.96-.22,1.28-.6.31-.38.44-.88.35-1.37l-6.6-34.66v-13.11h19.89c.92,0,1.66-.74,1.66-1.66v-6.63c0-.92-.74-1.66-1.66-1.66Z"/>
  <g id="Icon">
    <path class="cls-4" d="M168.1,445.56c-3.58,4.2-8.91,6.86-14.86,6.86-10.78,0-19.53-8.75-19.53-19.53s8.09-19.53,18.88-19.53c.92,0,1.65.1,2.32.19.74.1,1.37.19,2.19-.08,1.05-.35,2.35-1.22,4.39-3.04,1.71-1.52,2.54-2.66,2.88-3.65.27-.78.2-1.44.12-2.06-.08-.6-.18-1.18-.18-1.78,0-10.06,8.17-18.23,18.23-18.23s18.23,8.17,18.23,18.23c0,6.7-3.62,12.55-9,15.72-.68-.06-1.37-.1-2.07-.1-8.56,0-15.99,4.87-19.67,11.99-.1-2.11.64-4.39,2.04-6.39,2.2-3.14,6.01-5.59,10.48-5.59,8.62,0,15.63-7,15.63-15.63s-7-15.63-15.63-15.63-15.63,7-15.63,15.63c0,.63.14,1.23.21,1.87.09.86.08,1.76-.29,2.82-.44,1.27-1.43,2.8-3.61,4.74-2.44,2.18-4.04,3.15-5.3,3.57-1.07.36-1.94.36-2.87.25-.71-.08-1.46-.23-2.46-.23-9.33,0-16.28,7.6-16.28,16.93s7.59,16.93,16.93,16.93c6.05,0,11.36-3.18,14.35-7.95.07,1.26.24,2.5.51,3.7ZM169.7,422.82c-1.75,1.46-2.41,3.59-2.68,5.48-.3,2.1-.1,3.95-.1,4.59,0,7.55-6.13,13.67-13.67,13.67s-13.67-6.13-13.67-13.67,6.13-13.67,13.67-13.67c5.88,0,12.58-5.01,15.91-11.09.93-1.7.9-4.62,1.45-7.53.48-2.54,1.33-5.07,3.18-7.04,1.86-1.97,4.73-3.42,9.35-3.64,6.83-.32,13.08,4.88,13.08,11.72s-4.08,13.58-11.59,14.32c-10.81,1.06-12.28,4.66-14.92,6.87ZM168.03,420.82c2.89-2.41,4.52-6.3,16.33-7.46,6.09-.6,9.24-6.26,9.24-11.73s-4.99-9.37-10.36-9.12c-3.73.17-6.08,1.23-7.58,2.82-1.5,1.59-2.13,3.67-2.52,5.74-.61,3.22-.7,6.42-1.73,8.3-3.78,6.91-11.51,12.45-18.19,12.45-6.11,0-11.07,4.96-11.07,11.07s4.96,11.07,11.07,11.07,11.07-4.96,11.07-11.07c0-.84-.27-3.58.41-6.41.49-2.05,1.48-4.12,3.32-5.66ZM187.09,406.85c.72,0,1.3.58,1.3,1.3s-.58,1.3-1.3,1.3-1.3-.58-1.3-1.3.58-1.3,1.3-1.3ZM154.54,423.12c2.52,0,4.56,2.04,4.56,4.56s-2.04,4.56-4.56,4.56-4.56-2.04-4.56-4.56,2.04-4.56,4.56-4.56ZM154.54,425.73c-1.08,0-1.95.88-1.95,1.95s.88,1.95,1.95,1.95,1.95-.88,1.95-1.95-.88-1.95-1.95-1.95ZM176.68,407.5c.72,0,1.3.58,1.3,1.3s-.58,1.3-1.3,1.3-1.3-.58-1.3-1.3.58-1.3,1.3-1.3ZM146.73,428.98c.72,0,1.3.58,1.3,1.3s-.58,1.3-1.3,1.3-1.3-.58-1.3-1.3.58-1.3,1.3-1.3ZM181.88,394.48c3.23,0,5.86,2.63,5.86,5.86s-2.63,5.86-5.86,5.86-5.86-2.63-5.86-5.86,2.63-5.86,5.86-5.86ZM181.88,397.08c-1.8,0-3.26,1.46-3.26,3.26s1.46,3.26,3.26,3.26,3.26-1.46,3.26-3.26-1.46-3.26-3.26-3.26ZM153.24,434.19c2.16,0,3.91,1.75,3.91,3.91s-1.75,3.91-3.91,3.91-3.91-1.75-3.91-3.91,1.75-3.91,3.91-3.91ZM153.24,436.8c-.72,0-1.3.58-1.3,1.3s.58,1.3,1.3,1.3,1.3-.58,1.3-1.3-.58-1.3-1.3-1.3ZM147.38,404.89c-1.27,0-2.1-.5-3.01-1.17-.86-.63-1.85-1.43-4.15-1.43-1.67,0-3.08-.73-4.17-1.87-1.49-1.56-2.34-3.91-2.34-5.95,0-3.55,3.17-6.51,7.16-6.51.68,0,1.35.09,1.97.25,1.84-1.12,4.18-1.24,6.13-.11,1.55.89,2.54,2.4,2.86,4.06,2.05,1.1,3.36,3.06,3.36,5.25,0,1.64-.94,3.56-2.43,5.03-1.47,1.45-3.44,2.46-5.38,2.46ZM147.38,402.29c1.29,0,2.57-.74,3.55-1.71.96-.95,1.66-2.12,1.66-3.18,0-1.41-1.04-2.59-2.46-3.17-.46-.19-.77-.63-.8-1.13-.07-1.11-.65-2.16-1.66-2.75-1.23-.71-2.72-.53-3.81.32-.35.27-.82.35-1.24.2-.54-.19-1.13-.3-1.75-.3-2.48,0-4.56,1.71-4.56,3.91,0,1.19.41,2.53,1.15,3.58.65.92,1.58,1.63,2.75,1.63,2.66,0,4.06.78,5.15,1.54.36.25.67.5,1,.71.3.19.6.35,1.02.35ZM149.33,397.08c.72,0,1.3.58,1.3,1.3s-.58,1.3-1.3,1.3-1.3-.58-1.3-1.3.58-1.3,1.3-1.3ZM144.04,391.74c1.48.63,2.56,1.73,3.04,2.85.4.92.43,1.88.06,2.73-.36.85-1.07,1.49-2.01,1.84-1.15.43-2.68.4-4.16-.23-1.48-.63-2.56-1.73-3.04-2.85-.4-.92-.43-1.88-.06-2.73.36-.85,1.07-1.49,2.01-1.84,1.15-.43,2.68-.4,4.16.23ZM143.02,394.14c-.68-.29-1.38-.38-1.96-.26-.35.07-.67.21-.8.5-.12.29,0,.61.19.92.31.5.86.94,1.54,1.24.68.29,1.38.38,1.96.26.35-.07.67-.21.8-.5.12-.29,0-.61-.19-.92-.31-.5-.86-.94-1.54-1.23ZM160.53,403.68c.31-.65,1.09-.92,1.74-.61s.92,1.09.61,1.74c-1.78,3.71-4.28,5.81-7.14,7.13-.65.3-1.43.02-1.73-.64s-.02-1.43.64-1.73c2.36-1.09,4.41-2.83,5.88-5.89ZM159.11,398.18c.11-.71.78-1.2,1.49-1.08.71.11,1.2.78,1.08,1.49-.35,2.2-2.19,5.12-4.48,7.53-2.32,2.43-5.08,4.31-7.02,4.63-.71.11-1.38-.37-1.49-1.08-.11-.71.37-1.38,1.08-1.49,1.56-.25,3.68-1.89,5.55-3.85,1.89-1.98,3.51-4.32,3.79-6.14ZM189.7,421.17c10.78,0,19.53,8.75,19.53,19.53s-8.75,19.53-19.53,19.53-19.53-8.75-19.53-19.53,8.75-19.53,19.53-19.53ZM189.7,423.78c-9.34,0-16.93,7.59-16.93,16.93s7.59,16.93,16.93,16.93,16.93-7.59,16.93-16.93-7.59-16.93-16.93-16.93ZM188.34,446.82c-.26.02-.52.03-.79.03-5.67,0-10.26-4.59-10.26-10.24s4.6-10.24,10.26-10.24,10.26,4.59,10.26,10.24c0,.8-.09,1.58-.27,2.33,3.31.78,5.78,3.75,5.78,7.29,0,4.13-3.36,7.49-7.51,7.49s-7.18-3.04-7.48-6.9ZM190.98,445.49c-.04.24-.06.49-.06.75,0,2.7,2.2,4.88,4.9,4.88s4.9-2.19,4.9-4.88-2.2-4.88-4.9-4.88c-.44,0-.84-.22-1.08-.58-.24-.36-.29-.82-.12-1.22.38-.9.59-1.89.59-2.93,0-4.21-3.43-7.63-7.66-7.63s-7.66,3.42-7.66,7.63,3.43,7.63,7.66,7.63c.63,0,1.24-.08,1.83-.22.42-.1.87.01,1.19.31.32.29.47.73.41,1.16h0ZM191.56,432c2.43,2.43,2.5,6.25.23,8.52-2.27,2.27-6.09,2.2-8.52-.23s-2.5-6.25-.23-8.52c2.27-2.27,6.09-2.2,8.52.23ZM189.72,433.84c-1.38-1.38-3.55-1.52-4.83-.23s-1.15,3.45.23,4.83c1.38,1.38,3.55,1.52,4.83.23s1.15-3.45-.23-4.83ZM187.09,433.88c.72,0,1.3.58,1.3,1.3s-.58,1.3-1.3,1.3-1.3-.58-1.3-1.3.58-1.3,1.3-1.3ZM198.25,443.52c1.55,1.55,1.59,3.94.22,5.31s-3.75,1.34-5.31-.22-1.59-3.94-.22-5.31c1.37-1.37,3.75-1.34,5.31.22ZM196.41,445.36c-.48-.48-1.2-.64-1.62-.22s-.26,1.14.22,1.62c.48.48,1.2.64,1.62.22.42-.42.26-1.14-.22-1.62ZM179.94,449.27c-.06-.72.48-1.34,1.2-1.4.72-.06,1.34.48,1.4,1.2.08.97.42,1.79,1.08,2.43.51.5.52,1.33.02,1.84-.5.51-1.33.52-1.84.02-1.11-1.09-1.72-2.45-1.85-4.08ZM183.84,448.59c-.04-.72.51-1.33,1.22-1.38.72-.04,1.33.51,1.38,1.22.07,1.27.61,2.24,1.49,2.99.55.46.62,1.29.15,1.84-.46.55-1.29.62-1.84.15-1.42-1.2-2.29-2.77-2.41-4.83ZM197.82,430.94c-.38-.61-.2-1.41.41-1.8.61-.38,1.41-.2,1.8.41,1.06,1.69,1.53,3.51,1.16,5.52-.13.71-.81,1.18-1.52,1.04-.71-.13-1.18-.81-1.04-1.52.25-1.33-.1-2.54-.8-3.66Z"/>
  </g>
  <path class="cls-21" d="M683.59,238.06c-5.01-4.39-9.34-8.18-9.34-17.23,0-1.03-.62-1.97-1.58-2.36-.96-.4-2.05-.18-2.78.55-6.31,6.31-10.09,14.49-10.83,23.28l-6.65-3.33c-.8-.39-1.73-.35-2.48.11-.75.47-1.21,1.29-1.21,2.17,0,3.23-1.06,5.35-2.28,7.8-1.32,2.65-2.82,5.65-2.82,10.08,0,14.08,11.46,25.54,25.54,25.54s25.54-11.46,25.54-25.54c0-11.38-5.89-16.53-11.09-21.08ZM669.14,274.47c-5.63,0-10.22-4.58-10.22-10.22,0-4.96,6.93-12.93,8.32-14.48.97-1.08,2.83-1.08,3.8,0,1.39,1.55,8.32,9.52,8.32,14.48,0,5.63-4.58,10.22-10.22,10.22h0Z"/>
  <g id="Layer_2" data-name="Layer 2">
    <g id="add">
      <path class="cls-6" d="M364.2,551.19c-4.95,0-8.97-4.02-8.97-8.97v-10.59h-10.59c-4.96-.11-8.88-4.22-8.77-9.17.11-4.8,3.97-8.67,8.77-8.77h10.59v-10.59c-.11-4.96,3.82-9.06,8.77-9.17,4.96-.11,9.06,3.82,9.17,8.77,0,.13,0,.27,0,.4v10.59h10.59c4.96.11,8.88,4.22,8.77,9.17-.11,4.8-3.97,8.67-8.77,8.77h-10.59v10.59c0,4.95-4.02,8.97-8.97,8.97Z"/>
      <path class="cls-6" d="M383.76,514.8h-11.7v-11.7c0-4.34-3.52-7.85-7.86-7.86-4.34,0-7.86,3.52-7.86,7.86v11.7h-11.7c-4.34,0-7.85,3.52-7.86,7.86,0,4.34,3.52,7.86,7.86,7.86h11.7v11.7c0,4.34,3.52,7.85,7.86,7.86,4.34,0,7.86-3.52,7.86-7.86v-11.7h11.7c4.34,0,7.85-3.52,7.86-7.86,0-4.34-3.52-7.86-7.86-7.86h0Z"/>
    </g>
  </g>
  <g id="beat">
    <path class="cls-23" d="M137.16,542.03h-48.73c-3.36,0-6.09,2.73-6.09,6.09v48.73c0,3.36,2.73,6.09,6.09,6.09h48.73c3.36,0,6.09-2.73,6.09-6.09v-48.73c0-3.36-2.73-6.09-6.09-6.09ZM133.1,575.36h-4.06c-.39,0-.74-.22-.91-.57l-2.44-4.79-4.87,12.36c-.16.44-.61.72-1.08.65-.46-.06-.82-.43-.87-.89l-2.62-21.03-4.73,30.31c-.08.47-.47.83-.95.85-.46,0-.86-.31-.97-.75l-4.2-16.14h-12.89c-.56-.01-1-.46-1.02-1.02,0-.56.45-1.02,1.02-1.02h13.7c.46-.01.87.3.97.75l3.17,12.18,5.12-32.69c0-.56.45-1.02,1.02-1.02s1.02.45,1.02,1.02l2.94,24.36,4.22-10.74c.15-.37.5-.61.89-.63.4-.03.78.19.95.55l3.19,6.25h3.41c.56,0,1.02.45,1.02,1.02-.03.54-.47.96-1.02.97h0Z"/>
  </g>
  <g id="Line">
    <path class="cls-9" d="M575.99,363.02c-1.03,0-1.86.83-1.86,1.86v17.62c-.28-.15-.54-.34-.76-.58-7.86-7.87-20.6-7.88-28.47-.02-2.11,2.11-3.72,4.65-4.73,7.46-3.38,9.4-3.72,19.62-.95,29.22l3.48,12.16c2.39,8.3,9.97,14.04,18.61,14.07,5.12.04,10.05-1.97,13.68-5.58l1-1,1,1c3.63,3.61,8.56,5.62,13.68,5.58,8.62-.04,16.19-5.75,18.59-14.03l3.48-12.16c2.77-9.6,2.44-19.82-.95-29.22-2.87-8-10.44-13.35-18.94-13.36h-1.58c3.99-2.38,6.61-6.52,7.03-11.15,0-1.03-.83-1.86-1.86-1.86-9.94,0-15.5,3.59-18.59,7.21v-5.35c0-1.03-.83-1.86-1.86-1.86h0ZM608.31,390.65c3.11,8.67,3.41,18.1.87,26.95l-3.46,12.16c-1.94,6.71-8.08,11.33-15.06,11.34-4.12,0-8.06-1.65-10.97-4.57l-2.3-2.32c-.72-.73-1.9-.73-2.63-.01,0,0,0,0-.01.01l-2.3,2.32c-2.95,2.96-6.97,4.61-11.15,4.57-6.98-.01-13.12-4.63-15.06-11.34l-3.46-12.16c-2.54-8.85-2.24-18.28.87-26.95,2.35-6.52,8.53-10.88,15.47-10.89,4.35-.01,8.53,1.72,11.6,4.81,2.9,2.91,7.61,2.91,10.52,0,0,0,0,0,0,0,3.07-3.09,7.24-4.83,11.6-4.81,6.93.01,13.12,4.37,15.47,10.89ZM594.22,366.74c-.89,3.07-4.13,8.51-15.69,9.29,1.38-3.18,5.24-8.55,15.69-9.29ZM581.75,379.36c-1.13.75-2.18,1.61-3.14,2.57-.22.23-.48.43-.76.58v-2.75c1.31-.06,2.61-.19,3.9-.39h0Z"/>
    <path class="cls-7" d="M577.84,411.35c0,4.16,2.45,7.44,5.58,7.44s5.58-3.27,5.58-7.44-2.45-7.44-5.58-7.44-5.58,3.27-5.58,7.44Z"/>
    <path class="cls-7" d="M583.42,407.63c.76,0,1.86,1.45,1.86,3.72s-1.1,3.72-1.86,3.72-1.86-1.45-1.86-3.72,1.1-3.72,1.86-3.72Z"/>
    <path class="cls-7" d="M568.55,403.92c-3.12,0-5.58,3.27-5.58,7.44s2.45,7.44,5.58,7.44,5.58-3.27,5.58-7.44-2.45-7.44-5.58-7.44Z"/>
    <path class="cls-7" d="M568.55,415.07c-.76,0-1.86-1.45-1.86-3.72s1.1-3.72,1.86-3.72,1.86,1.45,1.86,3.72-1.1,3.72-1.86,3.72Z"/>
  </g>
  <g>
    <g>
      <path class="cls-14" d="M170.82,184.86c-11.69,0-21.2,9.51-21.2,21.2,0,1.13.92,2.05,2.05,2.05s2.05-.92,2.05-2.05c0-9.43,7.67-17.1,17.1-17.1s17.1,7.67,17.1,17.1c0,6.16-2.4,8.51-5.73,11.76-3.63,3.54-8.14,7.95-8.14,17.47,0,3.88-3.16,7.04-7.04,7.04s-7.04-3.16-7.04-7.04c0-1.14-.92-2.05-2.05-2.05s-2.05.92-2.05,2.05c0,6.15,5,11.15,11.15,11.15s11.15-5,11.15-11.15c0-7.78,3.51-11.21,6.92-14.54,3.42-3.34,6.96-6.79,6.96-14.69,0-11.69-9.51-21.2-21.2-21.2Z"/>
      <path class="cls-14" d="M171.81,216.11c-.61-2.39-2.11-4.39-4.23-5.64-1.72-1.02-3.68-1.45-5.66-1.24-1.13.12-1.95,1.13-1.83,2.26.12,1.13,1.11,1.93,2.26,1.83,1.1-.11,2.19.12,3.14.69,1.17.69,2.01,1.8,2.34,3.13.34,1.33.14,2.7-.56,3.88-.7,1.18-1.81,2.01-3.13,2.35-1.32.34-2.7.14-3.88-.56-.97-.58-2.24-.26-2.81.72-.58.97-.26,2.24.72,2.81,1.44.86,3.05,1.3,4.69,1.3.77,0,1.54-.1,2.29-.29,2.39-.61,4.39-2.11,5.65-4.23,1.26-2.12,1.62-4.6,1.01-6.99Z"/>
      <path class="cls-14" d="M171.89,194.44c-6.6,0-11.97,5.37-11.97,11.98,0,1.13.92,2.05,2.05,2.05s2.05-.92,2.05-2.05c0-4.34,3.53-7.87,7.87-7.87s7.87,3.53,7.87,7.87c0,1.13.92,2.05,2.05,2.05s2.05-.92,2.05-2.05c0-6.6-5.37-11.98-11.97-11.98Z"/>
    </g>
    <path class="cls-14" d="M163.98,205.59c-.04-1.13-.98-2.02-2.12-1.98-1.13.04-2.02.99-1.98,2.12l.18,5.46c.04,1.11.95,1.98,2.05,1.98.02,0,.05,0,.07,0,1.13-.04,2.02-.99,1.98-2.12l-.18-5.46Z"/>
  </g>
  <g>
    <path class="cls-2" d="M348.94,95.39s0,.03,0,.05c-.27,5.82.12,11.73,4.3,14.85.44-3.51,1.88-8.22,3.3-11.48.61-1.4,1.37-2.96,2.46-3.76,1.6-1.19,3.69-.65,5.21.56,1.23.98,2.42,2.62,3.46,4.04,2.7,3.71,4.55,6.83,6.35,11.36,2.02,5.09,3.15,10.33,3.19,15.77.02,3.24-.36,6.11-.84,9.17-.43,2.72-1.09,7.18-2.44,9.29-1.61,2.51-3.68,1.5-5.87.58-2.65-1.11-3.96-1.6-6.75-1.82-1.07-.09-2.05-.16-3.33-.99-1.5-.97-3.04-2.76-4.08-4.36-1.85-2.85-2.8-6.11-2.94-9.49-.06-1,0-2.01.16-3,.52-2.88,2.2-3.45,2.49-6.31.1-.99,0-2.16-.13-3.2-2.63-.96-6.04-2.95-7.72-5.11-1.69,2.16-5.09,4.15-7.72,5.11-.26,2.24-.36,3.97.79,5.96.63,1.09,1.26,1.83,1.57,3.55.34,1.88.15,4.39-.26,6.36-.68,3.24-2.23,6.24-4.48,8.66-.63.69-1.34,1.31-2.11,1.84-1.38.9-2.39.91-3.64,1.01-3.05.26-4.44.98-7.25,2.13-1.98.81-3.67,1.23-5.05-.92-1.35-2.11-2.01-6.56-2.44-9.29-.81-5.16-1.19-9.21-.44-14.58.75-5.35,2.57-10.59,5.05-15.3,1.31-2.49,2.56-4.34,4.09-6.43,1.04-1.42,2.23-3.06,3.46-4.04,1.52-1.21,3.62-1.75,5.21-.56,1.09.81,1.85,2.36,2.46,3.76,1.42,3.26,2.85,7.97,3.3,11.48,5.12-3.82,4.54-11.87,4.05-18.72-.13-1.8-.28-3.77-.28-5.55,0-1.19.96-2.15,2.15-2.15h3.12c1.19,0,2.15.96,2.15,2.15,0,2.85-.37,6.33-.51,9.36h0Z"/>
    <g>
      <path class="cls-1" d="M344.16,101.43h3.17c-.05-.58-.09-1.17-.11-1.77h-2.95c-.02.6-.06,1.19-.11,1.77Z"/>
      <path class="cls-1" d="M347.55,103.11h-3.6c-.61,3.74-2.14,7.04-5.54,9.1,0,.86-.04,1.71-.15,2.56,1.41-.6,2.74-1.35,3.99-2.24,1.4-1.02,2.45-2.07,2.71-2.9.14-.44.61-.68,1.05-.54.26.08.46.28.54.54.26.82,1.31,1.88,2.71,2.89,1.24.89,2.58,1.64,3.99,2.24-.11-.85-.16-1.7-.15-2.56-3.4-2.07-4.93-5.36-5.54-9.1h0Z"/>
      <path class="cls-1" d="M344.3,97.98h2.89c0-.59.01-1.18.04-1.77h-2.96c.02.59.03,1.18.04,1.77Z"/>
      <path class="cls-1" d="M344.19,94.54h3.12c.03-.59.07-1.19.11-1.77h-3.34c.04.59.08,1.18.11,1.77h0Z"/>
      <path class="cls-1" d="M343.96,91.09h3.58c.04-.6.08-1.19.12-1.77h-3.82c.04.58.08,1.17.12,1.77h0Z"/>
      <path class="cls-1" d="M343.75,87.64h4c.02-.56.04-1.1.04-1.61,0-.26-.22-.47-.48-.48h-3.12c-.26,0-.47.21-.48.48,0,.52.01,1.06.04,1.61h0Z"/>
      <path class="cls-1" d="M363.37,130.8s-.02-.04-.03-.06c-.49-.91-2.01-2.42-2.75-3.57-.79-1.22-1.11-2.52-2.03-3.51-.84-.9-2.33-1.77-3.51-2.42-.36,1.42-.84,2.06-1.51,3.18,1.11,1,2.17,2.02,2.9,3.23.85,1.4,1.11,2.76,1.72,4.07.55,1.18,1.15,1.82,1.7,2.66.26.38.16.9-.22,1.16-.38.26-.9.16-1.16-.22,0-.01-.01-.02-.02-.03-.59-.9-1.18-1.52-1.81-2.86-.59-1.27-.91-2.71-1.64-3.92-.53-.88-1.31-1.68-2.16-2.47-.44,1.7-.22,4.33.17,6.15.61,2.94,2.02,5.66,4.07,7.86.54.59,1.14,1.12,1.8,1.58,1.01.66,1.88.66,2.88.75,3.17.27,4.84,1.07,7.74,2.25.68.28,1.7.72,2.28.46,1.27-.56,2.01-4.2,2.28-5.61.45-2.29.98-5.6,1.23-8.02.37-3.28.32-6.59-.14-9.85-.72-5.19-2.47-10.18-4.87-14.75-1.27-2.41-2.49-4.22-3.96-6.23-.88-1.2-2.09-2.87-3.15-3.71-.89-.71-2.23-1.23-3.18-.53-1.54,1.15-3.33,6.69-3.89,8.6-.55,1.88-1.13,4.35-1.29,6.27.85.45,1.99.96,2.83.94,5.13-.14,4.27-1.67,5.2-3.03.26-.38.78-.48,1.16-.22s.48.78.22,1.16h0c-.74,1.08-.13,3.58-6.54,3.76-.78.02-1.65-.22-2.49-.57,1.27,1.75,2.14,2.14,4.2,2.97,1.59.64,2.77,1.14,3.95,2.35.34.35.64.72.92,1.12.06-.02.12-.04.18-.06,1.36-.45,3.5-1.17,5.29.15.37.28.45.8.17,1.17-.27.37-.8.45-1.17.17-1.03-.76-2.56-.3-3.6.04.43.84.8,1.71,1.16,2.58.17.43-.04.92-.46,1.09-.42.17-.9-.03-1.08-.45-.93-2.23-1.85-4.53-4.06-5.76-1.3-.72-3.06-1.18-4.43-2.04-.44-.28-.85-.6-1.22-.96.15,1.22.31,2.54.26,3.78,1.52.83,3.37,1.87,4.48,3.05,1.19,1.28,1.42,2.5,2.22,3.74.67,1.03,1.8,2.13,2.53,3.22,1.91-.12,2.97-.17,4.87.94.4.24.53.75.29,1.15-.23.39-.73.53-1.13.3-1.24-.72-2.06-.81-3.24-.76.28.88.37,1.99.39,2.85h0c0,.46-.38.84-.84.84s-.84-.38-.84-.84h0c-.05-1.08-.1-2.16-.67-3.17h0Z"/>
      <path class="cls-1" d="M355.04,115.68h0c.02.12.01.08,0,0Z"/>
      <path class="cls-1" d="M336.3,113.3c-.84.35-1.71.59-2.49.57-6.41-.18-5.81-2.68-6.54-3.76-.26-.38-.16-.9.22-1.16s.9-.16,1.16.22c.93,1.36.07,2.89,5.2,3.03.85.02,1.99-.49,2.83-.94-.29-3.47-1.85-8.57-3.26-11.78-.45-1.03-1.16-2.52-1.92-3.09-.95-.7-2.29-.17-3.18.53-1.06.84-2.28,2.51-3.15,3.71-2.6,3.57-4.41,6.63-6.15,11-1.94,4.88-3.03,9.94-3.07,15.17-.02,3.11.36,5.97.82,8.91.33,2.08.79,4.9,1.38,6.76.29.92.83,2.3,1.56,2.62.58.26,1.59-.18,2.28-.46,3.2-1.31,4.6-2,8.06-2.27.86-.07,1.64-.13,2.55-.72,1.29-.83,2.69-2.49,3.59-3.87,1.68-2.59,2.54-5.57,2.68-8.66.05-1.09,0-2.2-.22-3.06-1.89,1.75-2.35,2.51-3.17,4.78-.67,1.87-1,2.46-2.1,3.99-.13.19-.25.35-.34.48-.25.39-.77.5-1.15.25-.39-.25-.5-.77-.25-1.15,0,0,0,0,0,0,.55-.84,1.14-1.48,1.7-2.66.61-1.32.87-2.67,1.72-4.07.73-1.21,1.79-2.23,2.9-3.23-.66-1.12-1.15-1.76-1.51-3.18-1.18.66-2.67,1.52-3.51,2.42-.92.98-1.25,2.29-2.03,3.51-.83,1.28-2.04,2.37-2.78,3.63-.56,1.01-.62,2.09-.67,3.17h0c0,.46-.38.84-.84.84s-.84-.38-.84-.84h0c.02-.86.11-1.97.39-2.85-1.18-.05-2,.04-3.24.76-.4.23-.91.09-1.14-.3-.23-.4-.09-.91.3-1.14,1.91-1.11,2.96-1.07,4.87-.94.73-1.09,1.87-2.19,2.53-3.22.8-1.24,1.02-2.46,2.22-3.74,1.11-1.19,2.96-2.22,4.48-3.05-.05-1.24.11-2.56.26-3.78-2.29,2.21-5.1,2.03-7.11,4.1-1.18,1.22-1.96,3.08-2.61,4.65-.18.42-.67.62-1.1.44-.42-.18-.62-.66-.45-1.08.36-.87.73-1.74,1.16-2.58-1.04-.34-2.57-.8-3.6-.04-.37.27-.89.2-1.17-.17-.27-.37-.2-.89.17-1.17,1.78-1.32,3.93-.6,5.29-.15.06.02.12.04.18.06.71-1.05,1.65-1.91,2.76-2.52,1.34-.74,3.18-1.26,4.36-2,.83-.51,1.4-1.17,1.95-1.93h0Z"/>
      <path class="cls-1" d="M336.3,113.3l.16,2.38-.16-2.38Z"/>
    </g>
  </g>
  <g>
    <path class="cls-19" d="M109.9,61.76h-14.94c-1.5,0-2.87.83-3.56,2.16-.69,1.34-.59,2.93.28,4.16.79,1.13,1.21,2.45,1.21,3.83v31.49c0,5.26,4.28,9.54,9.54,9.54s9.54-4.28,9.54-9.54v-31.49c0-1.38.42-2.7,1.21-3.83.86-1.23.97-2.82.28-4.16-.69-1.33-2.06-2.16-3.56-2.16ZM102.43,109.64c-3.44,0-6.24-2.8-6.24-6.24v-31.49c0-2.06-.63-4.04-1.81-5.73-.22-.31-.12-.59-.05-.74.07-.14.26-.38.63-.38h14.94c.37,0,.56.24.63.38.07.14.17.43-.05.74-1.19,1.69-1.81,3.67-1.81,5.73v5.63h-6.24c-.91,0-1.65.74-1.65,1.65s.74,1.65,1.65,1.65h6.24v2.39h-6.24c-.91,0-1.65.74-1.65,1.65s.74,1.65,1.65,1.65h6.24v2.39h-6.24c-.91,0-1.65.74-1.65,1.65s.74,1.65,1.65,1.65h6.24v2.38h-6.24c-.91,0-1.65.74-1.65,1.65s.74,1.65,1.65,1.65h6.24v5.5c0,3.44-2.8,6.24-6.24,6.24Z"/>
    <path class="cls-19" d="M132.83,53.26h-14.94c-1.5,0-2.87.83-3.56,2.16-.69,1.34-.59,2.93.28,4.16.79,1.13,1.21,2.45,1.21,3.83v39.99c0,5.26,4.28,9.54,9.54,9.54s9.54-4.28,9.54-9.54v-39.99c0-1.38.42-2.7,1.21-3.83.87-1.23.97-2.82.28-4.16-.69-1.34-2.06-2.16-3.56-2.16ZM125.36,109.64c-3.44,0-6.24-2.8-6.24-6.24v-39.99c0-2.06-.63-4.04-1.81-5.73-.22-.31-.12-.59-.05-.74.07-.14.26-.38.63-.38h14.94c.37,0,.56.24.63.38.07.14.17.43-.05.74-1.19,1.69-1.81,3.67-1.81,5.73v14.13h-6.24c-.91,0-1.65.74-1.65,1.65s.74,1.65,1.65,1.65h6.24v2.39h-6.24c-.91,0-1.65.74-1.65,1.65s.74,1.65,1.65,1.65h6.24v2.39h-6.24c-.91,0-1.65.74-1.65,1.65s.74,1.65,1.65,1.65h6.24v2.38h-6.24c-.91,0-1.65.74-1.65,1.65s.74,1.65,1.65,1.65h6.24v5.5c0,3.44-2.8,6.24-6.24,6.24Z"/>
    <path class="cls-19" d="M159.32,46.92c-.69-1.34-2.06-2.16-3.56-2.16h-14.94c-1.5,0-2.87.83-3.56,2.16-.69,1.33-.59,2.93.28,4.16.79,1.13,1.21,2.45,1.21,3.83v48.49c0,5.26,4.28,9.54,9.54,9.54s9.54-4.28,9.54-9.54v-48.49c0-1.38.42-2.7,1.21-3.83.87-1.23.97-2.82.28-4.16ZM148.29,109.64c-3.44,0-6.24-2.8-6.24-6.24v-48.49c0-2.06-.63-4.04-1.81-5.73-.22-.31-.12-.59-.05-.74.07-.14.25-.38.63-.38h14.94c.38,0,.56.24.63.38.07.14.17.43-.05.74-1.18,1.69-1.81,3.67-1.81,5.73v22.63h-6.24c-.91,0-1.65.74-1.65,1.65s.74,1.65,1.65,1.65h6.24v2.39h-6.24c-.91,0-1.65.74-1.65,1.65s.74,1.65,1.65,1.65h6.24v2.39h-6.24c-.91,0-1.65.74-1.65,1.65s.74,1.65,1.65,1.65h6.24v2.38h-6.24c-.91,0-1.65.74-1.65,1.65s.74,1.65,1.65,1.65h6.24v5.5c0,3.44-2.8,6.24-6.24,6.24Z"/>
    <path class="cls-10" d="M102.43,76.43h5.14v-2.22c-1.2.04-2.87-.21-5.14-1.1-2.38-.93-4.02-.83-5.14-.36v30.66c0,2.83,2.3,5.14,5.14,5.14s5.14-2.3,5.14-5.14v-4.4h-5.14c-1.52,0-2.75-1.23-2.75-2.75s1.23-2.75,2.75-2.75h5.14v-.18h-5.14c-1.52,0-2.75-1.23-2.75-2.75s1.23-2.75,2.75-2.75h5.14v-.18h-5.14c-1.52,0-2.75-1.23-2.75-2.75s1.23-2.75,2.75-2.75h5.14v-.18h-5.14c-1.52,0-2.75-1.23-2.75-2.75s1.23-2.75,2.75-2.75Z"/>
    <path class="cls-11" d="M125.36,76.43h5.14v-10.49c-1.22.08-2.95-.14-5.39-1.09-2.21-.86-3.77-.84-4.88-.45v39c0,2.83,2.3,5.14,5.14,5.14s5.14-2.3,5.14-5.14v-4.4h-5.14c-1.52,0-2.75-1.23-2.75-2.75s1.23-2.75,2.75-2.75h5.14v-.18h-5.14c-1.52,0-2.75-1.23-2.75-2.75s1.23-2.75,2.75-2.75h5.14v-.18h-5.14c-1.52,0-2.75-1.23-2.75-2.75s1.23-2.75,2.75-2.75h5.14v-.18h-5.14c-1.52,0-2.75-1.23-2.75-2.75s1.23-2.75,2.75-2.75Z"/>
    <path class="cls-13" d="M148.29,76.43h5.14v-20.7c-1.22.13-3.03-.05-5.64-1.07-2.08-.81-3.59-.83-4.68-.52.02.25.05.5.05.76v48.49c0,2.83,2.3,5.14,5.14,5.14s5.14-2.3,5.14-5.14v-4.4h-5.14c-1.52,0-2.75-1.23-2.75-2.75s1.23-2.75,2.75-2.75h5.14v-.18h-5.14c-1.52,0-2.75-1.23-2.75-2.75s1.23-2.75,2.75-2.75h5.14v-.18h-5.14c-1.52,0-2.75-1.23-2.75-2.75s1.23-2.75,2.75-2.75h5.14v-.18h-5.14c-1.52,0-2.75-1.23-2.75-2.75s1.23-2.75,2.75-2.75Z"/>
    <g>
      <path class="cls-10" d="M103.77,58.18c0,1.29-1.05,2.34-2.34,2.34s-2.34-1.05-2.34-2.34,1.05-2.34,2.34-2.34,2.34,1.05,2.34,2.34Z"/>
      <path class="cls-10" d="M105.77,53.47c0,.55-.45,1-1,1s-1-.45-1-1,.45-1,1-1,1,.45,1,1Z"/>
      <path class="cls-10" d="M105.08,47.75c0,1.65-1.34,3-3,3s-3-1.34-3-3,1.34-3,3-3,3,1.34,3,3Z"/>
    </g>
    <g>
      <circle class="cls-11" cx="124.36" cy="49.27" r="2.34"/>
      <path class="cls-11" d="M128.7,44.56c0,.55-.45,1-1,1s-1-.45-1-1,.45-1,1-1,1,.45,1,1Z"/>
      <path class="cls-11" d="M128.02,38.85c0,1.65-1.34,3-3,3s-3-1.34-3-3,1.34-3,3-3,3,1.34,3,3Z"/>
    </g>
    <g>
      <circle class="cls-13" cx="147.3" cy="40.54" r="2.34"/>
      <path class="cls-13" d="M151.63,35.82c0,.55-.45,1-1,1s-1-.45-1-1,.45-1,1-1,1,.45,1,1Z"/>
      <path class="cls-13" d="M150.95,30.11c0,1.65-1.34,3-3,3s-3-1.34-3-3,1.34-3,3-3,3,1.34,3,3Z"/>
    </g>
  </g>
  <g>
    <path class="cls-16" d="M297.31,635.18c.25.3.25.78,0,1.08l-3.23,3.91h21.61c.35,0,.63.34.63.76s-.28.76-.63.76h-21.61l3.23,3.91c.24.3.24.78,0,1.08-.25.29-.64.29-.89,0l-4.28-5.17c-.26-.27-.29-.75-.07-1.07.02-.03.04-.06.07-.08l4.28-5.17c.25-.3.65-.3.89,0h0Z"/>
    <path class="cls-16" d="M297.31,666.31c.25.3.25.78,0,1.08l-3.23,3.91h21.61c.35,0,.63.34.63.76s-.28.76-.63.76h-21.61l3.23,3.91c.24.3.24.78,0,1.08-.25.29-.64.29-.89,0l-4.28-5.17c-.26-.27-.29-.75-.07-1.07.02-.03.04-.06.07-.08l4.28-5.17c.25-.3.65-.3.89,0h0Z"/>
    <path class="cls-16" d="M328.82,641.51c-.78.78-.78,2.04,0,2.81l10.18,10.18h-68.13c-1.1,0-1.99.89-1.99,1.99s.89,1.99,1.99,1.99h68.13l-10.18,10.18c-.77.78-.76,2.04.02,2.81.77.76,2.02.76,2.79,0l13.48-13.48c.83-.71.93-1.97.21-2.8-.07-.08-.14-.15-.22-.21l-13.48-13.48c-.78-.78-2.04-.78-2.81,0h0Z"/>
  </g>
</svg>