<?xml version="1.0" encoding="UTF-8"?>
<svg id="Layer_1" data-name="Layer 1" xmlns="http://www.w3.org/2000/svg" viewBox="0 0 379.31 365.54">
  <defs>
    <style>
      .cls-1 {
        fill: #fff;
      }
    </style>
  </defs>
  <path class="cls-1" d="M178.79,76.51c3.18-8.71,7.79-16.66,13.55-23.52,5.76-6.86,12.72-12.61,20.49-17.03,3.89-2.19,7.95-4.1,12.2-5.59,4.25-1.48,8.66-2.61,13.18-3.37,4.51-.79,9.17-1.07,13.86-1.05,4.7.04,9.45.46,14.21,1.29,9.5,1.75,19.02,4.97,27.99,9.84,4.48,2.43,8.83,5.23,12.98,8.38l1.55,1.2.78.6c.26.2.5.42.75.63,1,.85,2.01,1.69,3,2.55l2.9,2.69.36.34.35.35.7.71,1.4,1.41c.96.92,1.81,1.95,2.71,2.92l1.34,1.48,1.27,1.55c1.64,2.01,3.29,4.13,4.94,6.38,3.21,4.37,5.99,8.64,9.31,14.24,4.5,7.6,9.8,16.54,15.38,29.15,3.38,7.65,5.39,13.31,9.39,24.65,3.34,9.46,5.92,17.48,7.73,23.31,2.74,9.76,5.48,19.53,8.23,29.29-1.03-17.6-3.48-37.72-8.48-59.58-2.12-9.27-4.39-19.46-9.09-32.66-9-25.28-19.42-41.04-22.33-45.33-3.8-5.6-7.26-10.01-9.66-12.93l-.44-.45-3.55-3.57c-1.21-1.15-2.46-2.27-3.69-3.4-.31-.28-.61-.57-.93-.84l-.96-.8-1.91-1.6c-5.14-4.23-10.55-8.03-16.16-11.37l-4.24-2.41-4.31-2.2c-2.9-1.38-5.82-2.72-8.78-3.85-5.91-2.32-11.92-4.16-17.95-5.47-6.03-1.29-12.08-2.05-18.07-2.34-5.99-.28-11.93-.07-17.73.71-5.8.76-11.47,2.01-16.96,3.71-5.48,1.74-10.73,3.99-15.76,6.63-10.05,5.29-19.07,12.38-26.7,21-7.65,8.59-13.76,18.79-18.12,30.03-2.18,5.62-3.9,11.52-5.13,17.61-1.23,6.1-2,12.39-2.22,18.82-.13,3.52-.09,7.08.1,10.65-5-2.3-10.09-4.25-15.21-5.82-1.75-.5-3.5-1.05-5.25-1.46l-2.63-.65-2.63-.56-1.32-.28c-.44-.09-.88-.16-1.32-.23l-3.25-.56c-.61-.11-1.23-.17-1.85-.24-.93-.11-1.86-.27-2.79-.34-7-.73-13.95-.83-20.74-.22-6.78.63-13.4,1.91-19.77,3.8-6.36,1.91-12.45,4.47-18.19,7.61-1.45.75-2.83,1.62-4.24,2.45-.71.41-1.38.86-2.06,1.31l-2.04,1.35c-1.33.94-2.64,1.92-3.95,2.88-.67.47-1.29,1-1.92,1.52l-1.89,1.56c-4.98,4.23-9.54,9-13.6,14.24-4.06,5.24-7.63,10.94-10.62,17.03-2.98,6.1-5.4,12.58-7.2,19.35-3.62,13.52-4.66,28.24-3.01,43.12,1.67,14.87,6.1,29.93,13.1,43.86,1.75,3.48,3.63,6.9,5.68,10.22.97,1.69,2.09,3.29,3.16,4.92l.81,1.22.4.6.4.57,1.62,2.26,1.62,2.26c.54.75,1.12,1.48,1.68,2.22l1.69,2.21.85,1.1c.28.37.58.72.87,1.08l3.53,4.31,3.65,4.21c9.88,11.08,20.96,21.03,32.78,29.36,7.22,5.09,12.89,8.34,18.16,11.34,26.64,15.16,53.73,22,53.73,22,1.61.44,3.91,1.05,6.69,1.7,7.21,1.69,19.84,4.18,39.01,4.8,21.56.7,38.34-1.38,49.77-2.84,5.44-.7,20.83-2.78,39.13-7.13,22.69-5.39,54.55-15.14,91.05-33.9-28.64,7.24-57.83,13.9-87.56,19.94-1.92.39-3.83.78-5.75,1.16-11.67,2.32-30.54,5.76-49.31,7.55-6.82.65-11.81.91-16.36,1.01-10.08.23-18.53-.32-24.64-.91-4.49-.44-10.83-1.24-18.45-2.83-7.92-1.6-14.43-3.5-19.23-5.09-10.34-3.41-18.37-7.24-25.13-10.39-2.95-1.38-5.99-2.87-9.3-4.58-10.07-5.23-20.2-10.54-31.92-19.61-4.96-3.84-9.73-7.96-14.27-12.35-4.54-4.39-8.83-9.05-12.9-13.93l-3-3.71-2.9-3.8c-.24-.32-.49-.63-.72-.95l-.7-.98-1.39-1.95c-.46-.65-.94-1.29-1.38-1.96l-1.33-2-1.34-1.99-.34-.5-.3-.48-.59-.96c-.78-1.29-1.62-2.54-2.32-3.87-1.5-2.6-2.86-5.27-4.12-7.97-2.03-4.39-3.73-8.9-5.12-13.46h108.48c2.3,0,4.3-1.47,4.85-3.58l.42-1.61,5.9,27.24c.48,2.2,2.47,3.75,4.84,3.77h.06s.06,0,.06,0c2.36-.07,4.29-1.54,4.8-3.66l10.72-43.87,36.14,82.71c.55.12,1.06.22,1.55.31.46.28,1.02.43,1.69.43h1.18c1.53.16,2.62.13,3.39,0h9.76c2.11,0,3.09-1.37,3.09-4.3v-101.97c0-1.37.28-1.95,1.12-1.95h1.26c.98,0,1.55.39,1.83,1.56l28.39,87.51c4.64,14.06,8.57,19.14,17.99,19.14h6.75c9.42,0,13.35-5.08,17.99-19.14l28.39-87.51c.28-1.17.84-1.56,1.83-1.56h.56c.84,0,1.12.59,1.12,1.95v101.97c0,2.93.98,4.3,3.09,4.3h14.34c2.11,0,3.23-1.37,3.23-4.3v-112.97c0-14.95-2.52-20.46-12.31-20.46h-14.97c-8.25,0-11.05,2.56-14.83,14.95l-29.09,94.45c-.42,1.38-.98,1.77-1.96,1.77h-1.68c-.98,0-1.54-.39-1.96-1.77l-29.1-94.45c-3.78-12.4-6.57-14.95-14.97-14.95h-15.25c-9.93,0-12.45,5.51-12.45,20.46v82.96l-29.54-77.39c-.28-2.31-2.27-4.07-4.71-4.17-2.43-.12-4.58,1.42-5.12,3.65l-12.06,49.37-5.72-26.41c-.47-2.18-2.45-3.73-4.78-3.77-2.3-.04-4.41,1.44-4.97,3.58l-4.81,18.28H27.43c-.72-3.59-1.25-7.2-1.55-10.79-.99-11.38.13-22.6,3.12-32.92,1.5-5.16,3.47-10.09,5.88-14.72,2.4-4.64,5.22-8.98,8.43-12.95,3.21-3.98,6.81-7.58,10.71-10.81l1.48-1.19c.57-.46,1.53-1.17,2.13-1.6.83-.59,1.65-1.18,2.48-1.76l1.6-1.02c.53-.34,1.06-.69,1.62-1,1.1-.62,2.18-1.29,3.31-1.85,4.48-2.35,9.19-4.29,14.09-5.72,4.91-1.41,9.99-2.35,15.17-2.79,5.19-.43,10.48-.34,15.79.22,5.31.57,10.64,1.72,15.89,3.29,5.26,1.59,10.42,3.72,15.43,6.27,5,2.59,9.81,5.68,14.39,9.13l30.82,23.28-10.83-36.91c-2.83-9.65-4.1-19.59-3.87-29.29.22-9.71,2.08-19.13,5.25-27.84Z"/>
</svg>