<?xml version="1.0" encoding="UTF-8"?>
<svg id="Layer_1" data-name="Layer 1" xmlns="http://www.w3.org/2000/svg" viewBox="0 0 855.13 237.49">
  <defs>
    <style>
      .cls-1 {
        fill: #33b725;
      }

      .cls-2 {
        fill: #1c70b0;
      }
    </style>
  </defs>
  <path class="cls-2" d="M309.93,105.97h-39.69c-18.22,0-25.26,9.11-25.26,33.38v21.75c0,24.28,7.04,33.38,25.26,33.38h39.69c1.35,0,2.07-.89,2.07-2.78v-12.19c0-1.86-.72-2.73-2.08-2.73h-39.61c-9.43,0-12.05-3.84-12.05-16.86v-2.11h51.12c1.36,0,1.99-.9,1.99-2.83v-10.15c0-1.93-.63-2.83-1.99-2.83h-51.12v-1.19c0-13.23,2.63-17.14,12.05-17.14h39.61c1.36,0,2.08-.88,2.08-2.77v-12.15c0-1.9-.72-2.78-2.07-2.78Z"/>
  <path class="cls-2" d="M371.58,105.97h-42.33c-1.81,0-2.71,1.26-2.71,3.79v80.93c0,2.53.9,3.79,2.71,3.79h42.33c19.63,0,27.67-11,27.67-35.66v-17.2c0-24.66-8.05-35.66-27.67-35.66ZM385.35,157.16c0,14.85-3.52,19.63-14.15,19.63h-29.57c-.81,0-1.17-.5-1.17-1.64v-49.71c0-1.26.36-1.76,1.17-1.76h29.57c10.64,0,14.15,4.78,14.15,19.63v13.84Z"/>
  <path class="cls-2" d="M465.95,105.97h-48.2c-1.79,0-2.69,1.26-2.69,3.79v81.94c0,1.9.72,2.78,2.06,2.78h9.22c1.36,0,1.99-.89,1.99-2.8v-24.39h37.45c13.84,0,19.45-9.02,19.45-26.17v-9.11c0-17.07-5.56-26.05-19.3-26.05ZM471.34,139.66c0,7.55-2.26,11.2-8.4,11.2h-34.59v-25.68c0-1.13.36-1.51,1.17-1.51h33.42c6.14,0,8.4,3.65,8.4,11.2v4.78Z"/>
  <path class="cls-2" d="M555.86,164.66c9.5-2.39,13.48-10.83,13.48-25.18v-7.46c0-17.07-5.56-26.05-19.3-26.05h-48.19c-1.8,0-2.69,1.26-2.69,3.79v81.94c0,1.9.72,2.78,2.06,2.78h9.22c1.36,0,1.99-.88,1.99-2.77v-25.05h29.22l14.29,26.18c.54,1.13,1,1.64,2.53,1.64h11.67c1.63,0,1.72-2.27,1.18-3.15l-15.47-26.69ZM555.43,139.61c0,7.59-2.26,11.25-8.4,11.25h-34.59v-26.3c0-1.01.36-1.52,1.17-1.52h33.42c6.14,0,8.4,3.67,8.4,11.25v5.31Z"/>
  <path class="cls-2" d="M647.57,105.97h-39.69c-18.22,0-25.26,9.11-25.26,33.38v21.75c0,24.28,7.04,33.38,25.26,33.38h39.69c1.35,0,2.07-.89,2.07-2.78v-12.19c0-1.86-.72-2.73-2.08-2.73h-39.61c-9.43,0-12.05-3.84-12.05-16.86v-2.11h51.12c1.36,0,1.99-.9,1.99-2.83v-10.15c0-1.93-.63-2.83-1.99-2.83h-51.12v-1.19c0-13.23,2.63-17.14,12.05-17.14h39.61c1.36,0,2.08-.88,2.08-2.77v-12.15c0-1.9-.72-2.78-2.07-2.78Z"/>
  <path class="cls-2" d="M709.22,105.97h-42.32c-1.81,0-2.71,1.26-2.71,3.79v80.93c0,2.53.9,3.79,2.71,3.79h42.32c19.63,0,27.67-11,27.67-35.66v-17.2c0-24.66-8.05-35.66-27.67-35.66ZM722.99,157.16c0,14.85-3.52,19.63-14.15,19.63h-29.57c-.81,0-1.17-.5-1.17-1.64v-49.71c0-1.26.36-1.76,1.17-1.76h29.57c10.64,0,14.15,4.78,14.15,19.63v13.84Z"/>
  <path class="cls-2" d="M853.06,105.97h-70.46c-1.35,0-2.07.9-2.07,2.82v12.57c0,1.92.72,2.95,2.07,2.95h28.27v67.41c0,1.89.64,2.77,2,2.77h9.91c1.36,0,2-.88,2-2.77v-67.41h28.27c1.35,0,2.08-1.03,2.08-2.95v-12.57c0-1.92-.72-2.82-2.08-2.82Z"/>
  <rect class="cls-2" x="752.71" y="120.6" width="14.67" height="73.89" rx="2.69" ry="2.69"/>
  <circle class="cls-1" cx="760.04" cy="105.64" r="7.33"/>
  <path class="cls-1" d="M116.16,49.71c2.07-5.66,5.06-10.83,8.81-15.28,3.74-4.45,8.27-8.19,13.31-11.07,2.53-1.42,5.17-2.66,7.93-3.63,2.76-.96,5.62-1.7,8.56-2.19,2.93-.51,5.96-.7,9-.68,3.05.03,6.14.3,9.23.84,6.17,1.13,12.36,3.23,18.18,6.39,2.91,1.58,5.74,3.4,8.43,5.44l1.01.78.5.39c.17.13.33.27.49.41.65.55,1.3,1.1,1.95,1.66l1.89,1.75.24.22.23.23.45.46.91.92c.62.6,1.18,1.26,1.76,1.9l.87.96.83,1.01c1.06,1.3,2.14,2.69,3.21,4.15,2.08,2.84,3.89,5.61,6.05,9.25,2.93,4.94,6.37,10.75,9.99,18.94,2.2,4.97,3.5,8.65,6.1,16.01,2.17,6.15,3.85,11.35,5.02,15.14,1.78,6.34,3.56,12.69,5.34,19.03-.67-11.44-2.26-24.51-5.51-38.71-1.38-6.02-2.85-12.64-5.9-21.22-5.85-16.42-12.62-26.66-14.51-29.45-2.47-3.64-4.72-6.5-6.28-8.4l-.29-.29-2.3-2.32c-.79-.75-1.6-1.47-2.4-2.21-.2-.18-.4-.37-.6-.55l-.62-.52-1.24-1.04c-3.34-2.75-6.86-5.22-10.5-7.39l-2.76-1.56-2.8-1.43c-1.88-.9-3.78-1.77-5.7-2.5-3.84-1.51-7.74-2.7-11.66-3.55-3.92-.84-7.85-1.33-11.74-1.52-3.89-.18-7.75-.05-11.52.46-3.77.5-7.45,1.3-11.02,2.41-3.56,1.13-6.97,2.59-10.24,4.31-6.53,3.44-12.39,8.04-17.35,13.64-4.97,5.58-8.94,12.21-11.77,19.51-1.42,3.65-2.53,7.48-3.33,11.44-.8,3.96-1.3,8.05-1.45,12.23-.08,2.29-.06,4.6.06,6.92-3.25-1.49-6.55-2.76-9.88-3.78-1.14-.33-2.27-.68-3.41-.95l-1.71-.42-1.71-.36-.86-.18c-.29-.06-.57-.1-.86-.15l-2.11-.36c-.4-.07-.8-.11-1.2-.16-.6-.07-1.21-.17-1.81-.22-4.55-.47-9.06-.54-13.47-.15-4.41.41-8.71,1.24-12.84,2.47-4.13,1.24-8.09,2.91-11.82,4.94-.95.49-1.84,1.05-2.75,1.59-.46.27-.9.56-1.34.85l-1.33.87c-.87.61-1.71,1.25-2.57,1.87-.43.3-.84.65-1.25.99l-1.23,1.01c-3.24,2.75-6.2,5.85-8.84,9.25-2.64,3.4-4.96,7.11-6.9,11.07-1.94,3.96-3.51,8.17-4.68,12.57-2.35,8.79-3.03,18.35-1.95,28.02,1.09,9.66,3.96,19.45,8.51,28.5,1.14,2.26,2.36,4.48,3.69,6.64.63,1.1,1.36,2.14,2.05,3.19l.52.79.26.39.26.37,1.05,1.47,1.06,1.47c.35.49.73.96,1.09,1.44l1.1,1.44.55.72c.18.24.38.47.57.7l2.29,2.8,2.37,2.73c6.42,7.2,13.62,13.66,21.3,19.07,4.69,3.3,8.37,5.42,11.8,7.37,17.31,9.85,34.91,14.3,34.91,14.3,1.05.29,2.54.68,4.34,1.1,4.69,1.1,12.89,2.71,25.34,3.12,14.01.46,24.91-.9,32.34-1.85,3.54-.45,13.53-1.81,25.42-4.63,14.74-3.5,35.44-9.84,59.15-22.03-18.61,4.7-37.57,9.03-56.89,12.96-1.25.25-2.49.5-3.73.75-7.58,1.51-19.84,3.74-32.04,4.91-4.43.42-7.67.59-10.63.66-6.55.15-12.04-.21-16.01-.59-2.91-.28-7.04-.8-11.99-1.84-5.15-1.04-9.37-2.28-12.49-3.3-6.72-2.22-11.94-4.7-16.33-6.75-1.92-.89-3.89-1.86-6.04-2.98-6.55-3.4-13.13-6.85-20.74-12.74-3.23-2.5-6.32-5.17-9.27-8.02-2.95-2.85-5.74-5.88-8.38-9.05l-1.95-2.41-1.88-2.47c-.16-.21-.32-.41-.47-.62l-.45-.63-.9-1.27c-.3-.42-.61-.84-.9-1.27l-.87-1.3-.87-1.29-.22-.32-.19-.31-.39-.63c-.51-.84-1.05-1.65-1.51-2.51-.97-1.69-1.86-3.43-2.68-5.18-1.32-2.85-2.42-5.78-3.32-8.74h70.48c1.5,0,2.79-.96,3.15-2.33l.27-1.04,3.83,17.69c.31,1.43,1.6,2.43,3.15,2.45h.04s.04,0,.04,0c1.53-.05,2.79-1,3.12-2.38l6.96-28.5,23.48,53.73c.36.08.69.14,1,.2.3.18.66.28,1.1.28h.77c.99.1,1.7.09,2.2,0h6.34c1.37,0,2.01-.89,2.01-2.79v-66.25c0-.89.18-1.27.73-1.27h.82c.64,0,1,.25,1.19,1.02l18.45,56.86c3.01,9.14,5.57,12.44,11.69,12.44h4.38c6.12,0,8.68-3.3,11.69-12.44l18.45-56.86c.18-.76.55-1.02,1.19-1.02h.36c.55,0,.73.38.73,1.27v66.25c0,1.9.64,2.79,2.01,2.79h9.31c1.37,0,2.1-.89,2.1-2.79v-73.4c0-9.72-1.64-13.3-8-13.3h-9.72c-5.36,0-7.18,1.66-9.63,9.72l-18.9,61.36c-.27.89-.64,1.15-1.27,1.15h-1.09c-.64,0-1-.26-1.27-1.15l-18.9-61.36c-2.45-8.05-4.27-9.72-9.72-9.72h-9.91c-6.45,0-8.09,3.58-8.09,13.3v53.9l-19.19-50.28c-.18-1.5-1.48-2.64-3.06-2.71-1.58-.08-2.98.92-3.33,2.37l-7.84,32.08-3.72-17.16c-.31-1.42-1.59-2.43-3.1-2.45-1.49-.03-2.87.94-3.23,2.33l-3.12,11.87H17.82c-.46-2.33-.81-4.68-1.01-7.01-.65-7.39.08-14.68,2.03-21.39.97-3.35,2.26-6.56,3.82-9.57,1.56-3.01,3.39-5.83,5.48-8.41,2.09-2.58,4.42-4.92,6.96-7.02l.96-.77c.37-.3.99-.76,1.38-1.04.54-.38,1.07-.77,1.61-1.14l1.04-.66c.35-.22.69-.45,1.05-.65.72-.4,1.41-.84,2.15-1.2,2.91-1.53,5.97-2.79,9.15-3.72,3.19-.92,6.49-1.52,9.86-1.81,3.37-.28,6.81-.22,10.26.14,3.45.37,6.91,1.12,10.33,2.14,3.41,1.03,6.77,2.42,10.03,4.08,3.25,1.68,6.37,3.69,9.35,5.93l20.03,15.12-7.03-23.98c-1.84-6.27-2.66-12.73-2.51-19.03.15-6.31,1.35-12.43,3.41-18.08Z"/>
</svg>